# xmcd CD database file
#
# Track frame offsets:
#	150
#	15112
#	30814
#	44689
#	62128
#	82185
#	99180
#	118722
#	132809
#	149931
#	155929
#	170199
#	208995
#	274192
#
# Disc length: 4253 seconds
#
# Revision: 2
# Processed by: cddbd v1.4b41PL1 Copyright (c) Steve Scherf et al.
# Submitted via: Feurio! 1.50.2ß - http://www.feurio.com
#
DISCID=d0109b0e
DTITLE=JUAN LUIS GUERRA - ni es lo mismo ni es igual
DYEAR=1900
DGENRE=
TTITLE0=mi p.c.
TTITLE1=vale la pena
TTITLE2=la hormiguita
TTITLE3=quisiera
TTITLE4=el niagara en bicicleta
TTITLE5=palomita blanca
TTITLE6=testimonio
TTITLE7=amapola
TTITLE8=el primo
TTITLE9=sobremosa
TTITLE10=amor de couco
TTITLE11=estrellas de areito - 
TTITLE12=  =
TTITLE13=  =
EXTD=
EXTT0=
EXTT1=
EXTT2=
EXTT3=
EXTT4=
EXTT5=
EXTT6=
EXTT7=
EXTT8=
EXTT9=
EXTT10=
EXTT11=
EXTT12=
EXTT13=
PLAYORDER=
